# xmcd CD database file
#
# Track frame offsets:
#	150
#	22150
#	37972
#	68472
#	91427
#	106501
#	135704
#	155002
#	173952
#	189665
#	211761
#
# Disc length: 3141 seconds
#
# Revision: 0
# Processed by: cddbd v1.4PL0 Copyright (c) Steve Scherf et al.
# Submitted via: CDex 1.51
#
DISCID=8c0c430b
DTITLE=Various Artist - SALSA! - Top Latino Dance Music Disc 2/2
DYEAR=1994
DGENRE=Salsa
TTITLE0=Celia Cruz y Willie Colon - Come Down To Miami
TTITLE1=Orquestra Immensidad - Que Feliz
TTITLE2=Fania All Stars - El Rey De La Puntualidad
TTITLE3=Johnny Pacheco y Pete 'El Conde' Rodriguez - Dame Un Traguito
TTITLE4=Pete 'El Conde' Rodriguez - Hipocrita
TTITLE5=Ray Barretto - Aqui Se Puede
TTITLE6=Jose 'Cheo' Feliciano - Anacoana
TTITLE7=Roberto Blades - Amantes
TTITLE8=Sonora Poncena - To Son Mi Soro
TTITLE9=Ruben Blades y Willie Colon - Ojos
TTITLE10=Ismael Miranda - Nicolas
EXTD=YEAR: 1994
EXTT0=
EXTT1=
EXTT2=
EXTT3=
EXTT4=
EXTT5=
EXTT6=
EXTT7=
EXTT8=
EXTT9=
EXTT10=
PLAYORDER=
